# xmcd
#
# Track frame offsets:
#	150
#	20356
#	37733
#	53454
#	66285
#	79122
#	92455
#	104557
#	116961
#	129724
#	143882
#	159440
#	178137
#	192890
#	212098
#	229984
#	242623
#	256455
#	264692
#	277917
#
# Disc length: 3863 seconds
# Revision: 0
# Processed by: cddbd v1.5.2PL0 Copyright (c) Steve Scherf et al.
# Submitted via: dBpowerAMP V12.0
#
DISCID=1a0f1514
DTITLE=Various Artist - Les Stars Du Country
DYEAR=2009
DGENRE=Country Franco
TTITLE0=Patrick Norman - Quand On Est En Amour
TTITLE1=Richard Huet - Je Crois En L'amour
TTITLE2=Renée Martel - Un Amour Qui Ne Veut Pas Mourir
TTITLE3=Marie King - Quand Le Soleil Dit Bonjour Aux Montagnes
TTITLE4=Bobby Hachey - Ma Petite Maison
TTITLE5=Georges Hamel - Je Vois Que Tu T'en Vas
TTITLE6=Marcel Martel - Ton Coeur Est Froid
TTITLE7=Paul Brunelle - Je Chante En Me Reveillant
TTITLE8=Chantal Et Réjean Massé - L'hotel Et La Boisson
TTITLE9=André Breton - Merci Mon Dieu
TTITLE10=Renée Martel Et Patrick Norman - Nous
TTITLE11=Lévis Bouliane - Ces Belles Années
TTITLE12=Marcel Martel - Bonsoir Chérie
TTITLE13=Normand Grenier - Danse Pour Moi
TTITLE14=Véronique Et Roger Gravel - Je Dis Des Mots D'amour
TTITLE15=Léo Benoit - Tu Sais Que Je T'aime
TTITLE16=Paul Brunelle - Mon Enfant Je Te Pardonne
TTITLE17=Roger Miron - À Qui Le P'tit Coeur Après Neuf Heures
TTITLE18=Paul Brunelle - Le Cowboy Des Montagnes
TTITLE19=Marcel Martel - Tu Dis Que Tu M'aimes
EXTD=
EXTT0=
EXTT1=
EXTT2=
EXTT3=
EXTT4=
EXTT5=
EXTT6=
EXTT7=
EXTT8=
EXTT9=
EXTT10=
EXTT11=
EXTT12=
EXTT13=
EXTT14=
EXTT15=
EXTT16=
EXTT17=
EXTT18=
EXTT19=
PLAYORDER=
